name ./resultDataOpenSim/trcMotMarkerGrf/sub09/grf-05-05.mot
datacolumns 19
datarows 12
range 0.52000000 0.56400000
endheader

                time	     ground_force_vx	     ground_force_vy	     ground_force_vz	     ground_force_px	     ground_force_py	     ground_force_pz	   l_ground_force_vx	   l_ground_force_vy	   l_ground_force_vz	   l_ground_force_px	   l_ground_force_py	   l_ground_force_pz	     ground_torque_x	     ground_torque_y	     ground_torque_z	   l_ground_torque_x	   l_ground_torque_y	   l_ground_torque_z	
          0.52000000	         20.52955213	        353.05409973	         -8.87892686	         -0.71139670	          0.00000000	          0.15600837	          0.00000000	          0.00000000	          0.00000000	          0.00000000	          0.00000000	          0.00000000	          0.00000000	          3.88631001	          0.00000000	          0.00000000	          0.00000000	          0.00000000	
          0.52400000	         20.30846030	        358.85270224	         -6.88432949	         -0.70952286	          0.00000000	          0.15516831	          0.00000000	          0.00000000	          0.00000000	          0.00000000	          0.00000000	          0.00000000	          0.00000000	          3.97589917	          0.00000000	          0.00000000	          0.00000000	          0.00000000	
          0.52800000	         19.78552049	        364.94590835	         -5.19795205	         -0.70754466	          0.00000000	          0.15442206	          0.00000000	          0.00000000	          0.00000000	          0.00000000	          0.00000000	          0.00000000	          0.00000000	          4.04482200	          0.00000000	          0.00000000	          0.00000000	          0.00000000	
          0.53200000	         19.15920938	        371.28723730	         -3.99179473	         -0.70551790	          0.00000000	          0.15379983	          0.00000000	          0.00000000	          0.00000000	          0.00000000	          0.00000000	          0.00000000	          0.00000000	          4.07055817	          0.00000000	          0.00000000	          0.00000000	          0.00000000	
          0.53600000	         18.61456289	        377.86837979	         -3.36275659	         -0.70347274	          0.00000000	          0.15331607	          0.00000000	          0.00000000	          0.00000000	          0.00000000	          0.00000000	          0.00000000	          0.00000000	          4.04117682	          0.00000000	          0.00000000	          0.00000000	          0.00000000	
          0.54000000	         18.28821458	        384.72623107	         -3.32152053	         -0.70143376	          0.00000000	          0.15296558	          0.00000000	          0.00000000	          0.00000000	          0.00000000	          0.00000000	          0.00000000	          0.00000000	          3.95876567	          0.00000000	          0.00000000	          0.00000000	          0.00000000	
          0.54400000	         18.24973474	        391.93738975	         -3.79889955	         -0.69943054	          0.00000000	          0.15273146	          0.00000000	          0.00000000	          0.00000000	          0.00000000	          0.00000000	          0.00000000	          0.00000000	          3.83917397	          0.00000000	          0.00000000	          0.00000000	          0.00000000	
          0.54800000	         18.50073348	        399.60167214	         -4.66584414	         -0.69748008	          0.00000000	          0.15259767	          0.00000000	          0.00000000	          0.00000000	          0.00000000	          0.00000000	          0.00000000	          0.00000000	          3.70825615	          0.00000000	          0.00000000	          0.00000000	          0.00000000	
          0.55200000	         18.99203132	        407.83052938	         -5.76620935	         -0.69558344	          0.00000000	          0.15255271	          0.00000000	          0.00000000	          0.00000000	          0.00000000	          0.00000000	          0.00000000	          0.00000000	          3.59570401	          0.00000000	          0.00000000	          0.00000000	          0.00000000	
          0.55600000	         19.65338234	        416.74646482	         -6.95597473	         -0.69373495	          0.00000000	          0.15258396	          0.00000000	          0.00000000	          0.00000000	          0.00000000	          0.00000000	          0.00000000	          0.00000000	          3.52808736	          0.00000000	          0.00000000	          0.00000000	          0.00000000	
          0.56000000	         20.42375677	        426.47563560	         -8.13499873	         -0.69192856	          0.00000000	          0.15267259	          0.00000000	          0.00000000	          0.00000000	          0.00000000	          0.00000000	          0.00000000	          0.00000000	          3.52282048	          0.00000000	          0.00000000	          0.00000000	          0.00000000	
          0.56400000	         21.27208508	        437.11797481	         -9.26236524	         -0.69016548	          0.00000000	          0.15279628	          0.00000000	          0.00000000	          0.00000000	          0.00000000	          0.00000000	          0.00000000	          0.00000000	          3.58447269	          0.00000000	          0.00000000	          0.00000000	          0.00000000	
